<?xml version="1.0" encoding="utf-8"?>
<!-- Generator: Adobe Illustrator 18.1.1, SVG Export Plug-In . SVG Version: 6.00 Build 0)  -->
<svg version="1.1" id="Layer_1" xmlns="http://www.w3.org/2000/svg" xmlns:xlink="http://www.w3.org/1999/xlink" x="0px" y="0px"
	 viewBox="0 0 175 70" enable-background="new 0 0 175 70" xml:space="preserve">
<g>
	<path fill="#003056" d="M24.1,39.4c0,5.5-3.4,8.8-8.1,8.8c-2,0-3.9-0.4-4.6-1.2c-0.5-0.6-0.7-4.2-0.7-4.7V31c0-1.4,0.5-1.6,2.2-1.6
		C19.6,29.3,24.1,33.8,24.1,39.4 M23.1,21c0,5-2,6.2-3.8,7.6c0,0-2.6-0.4-6.3-0.4c-1.5,0-2.3,0.1-2.3-0.9V13.6
		c0-1.3,0.2-1.8,4.2-1.8C20.5,11.8,23.1,17.8,23.1,21 M29.6,38.9c0-5.5-3.3-7.6-6.1-9.1c-1.2-0.6-2.4-0.9-2.4-1.1
		c0-0.2,1.3-0.9,2.5-1.7c2-1.4,4.2-3.6,4.2-8c0-4.5-3-8.7-11-8.7c-5.5,0-8.4,0.4-9.7,0.4c-2.1,0-3.6-0.1-5.5-0.1c-1,0-1.4,0-1.4,0.6
		c0,0.8,0.1,0.8,2.8,0.8c1.7,0,2.9,0.4,2.9,5.4v29.1c0,0.9-0.2,1.1-2.9,1.1c-1.3,0-1.7,0.1-1.7,0.8c0,0.6,0.6,0.7,1.2,0.7
		c2,0,2.9-0.3,5.5-0.3c2.7,0,5.2,0.6,7.8,0.6C24.2,49.3,29.6,46,29.6,38.9"/>
	<path fill="#003056" d="M79.2,15.6c0-1.8,0.1-4.2,0.1-4.9c0-0.3-0.1-0.5-0.4-0.5c-0.5,0-3.8,1.2-7.9,1.2c-0.6,0-0.7,0.2-0.7,0.8
		c0,0.4,0.2,0.6,2.5,0.6c1.5,0,2,0.5,2,4.5"/>
	<path fill="#003056" d="M174.5,26.3c0-0.6-0.3-0.7-1.2-0.7c-0.8,0-2.3,0.2-3.2,0.2c-1.5,0-2.5-0.1-4.1-0.1c-1,0-1.2,0-1.2,0.7
		c0,0.6,0.2,0.6,2,0.6c1.9,0,1.9,0.3,1.9,2c0,0.8-2,6.7-3.4,10.7c-0.9,2.6-1.2,3.4-1.6,3.4c-0.2,0-0.9-1-1.4-2.1
		c-3.4-8.7-4.8-10.7-4.8-12.3c0-1.3,0.3-1.6,1.7-1.6c1.2,0,1.4-0.1,1.4-0.6c0-0.6-0.2-0.8-1.4-0.8c-1.8,0-3.8,0.2-5.4,0.2
		c-1.4,0-1.7-0.1-3.3-0.1c-1,0-1.2,0.3-1.2,0.8c0,0.5,0.1,0.6,1.2,0.6c1,0,1.4,0.3,2.8,3.7c3.1,7.3,7.6,17.8,7.6,18.4
		c0,1.7-4.8,8.3-6.9,10.9c-1.9,2.4-4.6,2.8-4.6,3.1c0,0.3,0.6,0.6,1.5,0.6c1.2,0,1.6-0.5,3.3-0.7c1.2-0.2,1.9-0.2,2.5-1.5
		c1.8-3.7,4.3-8.3,7.9-16.9c4.5-10.8,6.9-17.6,8.2-17.6C173.7,27.1,174.5,26.8,174.5,26.3 M144.5,32c0,0.3-0.1,0.5-0.7,0.6
		c-4.2,0.7-7.3,1.4-10.2,1.4c-0.7,0-0.7-0.1-0.7-0.3c0-0.8,1.4-7.2,5.6-7.2C141.2,26.4,144.5,30.6,144.5,32 M149.6,32.4
		c0-0.5-0.9-1.8-1.9-2.9c-2-2.4-5.6-4.2-8.6-4.2c-5.1,0-10.5,4.7-10.5,12.7c0,9.4,6.9,11.7,11.5,11.7c4.6,0,9.4-3.6,9.4-3.8
		c0-0.1-0.2-0.5-0.5-0.5c-0.3,0-2.4,1.4-6.1,1.4c-4.3,0-10.3-2.1-10.3-9.9c0-1.3,0.2-1.6,1.1-1.6c6.4-0.4,12.1-1.6,13.5-2
		C148.8,32.8,149.6,32.6,149.6,32.4 M121.7,15.3v31.1c0,1-1,1-3.3,1c-1.4,0-1.4,0.3-1.4,0.7c0,0.5,0.1,0.6,1.4,0.6
		c0.8,0,3.8-0.1,5.7-0.1c1,0,2.3,0.1,3.1,0.1c2,0,2.4,0,2.4-0.6c0-0.5,0.1-0.8-2.7-0.8c-1,0-1.4-0.6-1.4-5.3c0-1.6,0.3-6.1,0.3-27.6
		 M112.4,32c0,0.3-0.1,0.5-0.7,0.6c-4.2,0.7-7.3,1.4-10.2,1.4c-0.7,0-0.7-0.1-0.7-0.3c0-0.8,1.4-7.2,5.6-7.2
		C109.1,26.4,112.4,30.6,112.4,32 M117.5,32.4c0-0.5-0.9-1.8-1.9-2.9c-2-2.4-5.6-4.2-8.6-4.2c-5.1,0-10.5,4.7-10.5,12.7
		c0,9.4,6.9,11.7,11.5,11.7c4.6,0,9.4-3.6,9.4-3.8c0-0.1-0.2-0.5-0.5-0.5c-0.3,0-2.4,1.4-6.1,1.4c-4.3,0-10.3-2.1-10.3-9.9
		c0-1.3,0.2-1.6,1.1-1.6c6.4-0.4,12.1-1.6,13.5-2C116.7,32.8,117.5,32.6,117.5,32.4 M74.8,16.3c0,11.9-0.2,28.6-0.2,30.2
		c0,0.8-0.5,0.8-2.4,0.8c-1.4,0-1.6,0.3-1.6,0.7c0,0.5,0.3,0.6,1.6,0.6c0.8,0,2.9-0.1,4.8-0.1c1.8,0,4.4,0.1,5.2,0.1
		c1.2,0,1.5,0,1.5-0.6c0-0.5-0.2-0.7-1.5-0.7c-3.5,0-3.4,0-3.4-2.7v-3.6c0-0.5,0.8-0.9,1.7-1.5c1-0.6,1.7-1.2,2-1.2
		c0.3,0,2.7,3.6,5.1,6.3c2.4,2.7,2.9,4.1,3.9,4.1c0.8,0,2.5-0.1,3.2-0.1c0.5,0,1.2,0.1,1.9,0.1c1.2,0,1.6-0.1,1.6-0.5
		c0-0.5-0.5-0.7-1.8-0.7c-1.9,0-3.7-2.8-5.6-5.1c-3.9-4.7-5-5.8-5-6.3c0-0.4,3.5-2.9,6.3-5.6c1.7-1.7,3.7-4.1,3.7-4.6
		c0-0.2-0.2-0.2-0.7-0.2c-0.7,0-3.9,0.2-4.7,0.2c-0.7,0-1.7-0.2-2.3-0.2c-0.7,0-1,0.1-1,0.6c0,0.5,0.3,0.6,1.1,0.6
		c2.5,0,2.6,0.1,2.6,1c0,1.2-0.5,2.1-2.7,4.2c-1.8,1.7-7.7,6.9-9.1,6.9c-0.2,0-0.2-0.2-0.2-0.4c0-9.2,0.3-15.5,0.3-24.1 M71.7,28.6
		c0-1.5-2.6-2.7-3.6-2.7c-2.6,0-5.3,2.9-6.1,2.9c-0.2,0-0.3-0.4-0.3-0.9c0-0.2,0.1-1.4,0.1-1.7c0-0.5-0.2-0.6-0.5-0.6
		c-0.9,0-2,0.3-2.9,0.3c-1.1,0-2.2-0.1-4.1-0.1c-1,0-0.9,0.2-0.9,0.8c0,0.6,0,0.6,1,0.6c3.2,0,3,0.1,3,3.9v15.4
		c0,0.8-0.2,0.8-2.5,0.8c-1.4,0-1.4,0.1-1.4,0.7c0,0.6,0.1,0.6,1.4,0.6c0.8,0,2.7-0.3,4.6-0.3c1.8,0,5.6,0.3,6.4,0.3
		c1.5,0,1.5,0.1,1.5-0.6c0-0.5-0.1-0.7-1.5-0.7c-4.2,0-4.3,0-4.3-2.8V33c0-2.4,1.2-3.7,4.5-3.7c2.8,0,3.5,2.3,4.3,2.3
		C70.8,31.6,71.7,29.2,71.7,28.6 M47.3,32c0,0.3-0.1,0.5-0.7,0.6c-4.2,0.7-7.3,1.4-10.2,1.4c-0.7,0-0.7-0.1-0.7-0.3
		c0-0.8,1.4-7.2,5.6-7.2C44,26.4,47.3,30.6,47.3,32 M52.4,32.4c0-0.5-0.9-1.8-1.9-2.9c-2-2.4-5.6-4.2-8.6-4.2
		c-5.1,0-10.5,4.7-10.5,12.7c0,9.4,6.9,11.7,11.5,11.7c4.6,0,9.4-3.6,9.4-3.8c0-0.1-0.2-0.5-0.5-0.5c-0.3,0-2.4,1.4-6.1,1.4
		c-4.3,0-10.3-2.1-10.3-9.9c0-1.3,0.2-1.6,1.1-1.6c6.4-0.4,12.1-1.6,13.5-2C51.6,32.8,52.4,32.6,52.4,32.4"/>
	<path fill="#003056" d="M125.8,15.5c0-1.7,0.3-3.7,0.3-4.4c0-0.6-0.3-0.9-0.6-0.9c-0.3,0-2.5,1-6.9,1.2c-1,0.1-1.4,0-1.4,0.7
		c0,0.6,0.6,0.7,1.6,0.7c2.5,0,2.9,0,2.9,3.6"/>
</g>
</svg>
